<?xml version="1.0" encoding="utf-8"?>
<!-- Generator: Adobe Illustrator 19.1.1, SVG Export Plug-In . SVG Version: 6.00 Build 0)  -->
<svg version="1.1" id="Layer_1" xmlns="http://www.w3.org/2000/svg" xmlns:xlink="http://www.w3.org/1999/xlink" x="0px" y="0px"
	 viewBox="206 -122 612 645" style="enable-background:new 206 -122 612 645;" xml:space="preserve">
<style type="text/css">
	.st0{fill:none;stroke:#000000;stroke-width:2;stroke-miterlimit:10;}
	.st1{clip-path:url(#SVGID_2_);fill:none;stroke:#FFFFFF;stroke-miterlimit:10;}
	.st2{clip-path:url(#SVGID_4_);stroke:#FFFFFF;stroke-miterlimit:10;}
	.st3{clip-path:url(#SVGID_6_);fill:none;stroke:#FFFFFF;stroke-miterlimit:10;}
	.st4{clip-path:url(#SVGID_8_);fill:none;stroke:#FFFFFF;stroke-miterlimit:10;}
	.st5{clip-path:url(#SVGID_10_);stroke:#FFFFFF;stroke-miterlimit:10;}
	.st6{clip-path:url(#SVGID_12_);fill:none;stroke:#FFFFFF;stroke-miterlimit:10;}
	.st7{clip-path:url(#SVGID_14_);stroke:#FFFFFF;stroke-miterlimit:10;}
	.st8{clip-path:url(#SVGID_16_);fill:none;stroke:#FFFFFF;stroke-miterlimit:10;}
	.st9{clip-path:url(#SVGID_18_);fill:none;stroke:#FFFFFF;stroke-miterlimit:10;}
	.st10{clip-path:url(#SVGID_20_);stroke:#FFFFFF;stroke-miterlimit:10;}
	.st11{clip-path:url(#SVGID_22_);fill:none;stroke:#FFFFFF;stroke-miterlimit:10;}
	.st12{clip-path:url(#SVGID_24_);stroke:#FFFFFF;stroke-miterlimit:10;}
	.st13{clip-path:url(#SVGID_26_);fill:none;stroke:#FFFFFF;stroke-miterlimit:10;}
	.st14{clip-path:url(#SVGID_28_);fill:none;stroke:#FFFFFF;stroke-miterlimit:10;}
	.st15{clip-path:url(#SVGID_30_);stroke:#FFFFFF;stroke-miterlimit:10;}
	.st16{clip-path:url(#SVGID_32_);fill:none;stroke:#FFFFFF;stroke-miterlimit:10;}
	.st17{clip-path:url(#SVGID_34_);stroke:#FFFFFF;stroke-miterlimit:10;}
	.st18{clip-path:url(#SVGID_36_);fill:none;stroke:#FFFFFF;stroke-miterlimit:10;}
	.st19{clip-path:url(#SVGID_38_);fill:none;stroke:#FFFFFF;stroke-miterlimit:10;}
	.st20{clip-path:url(#SVGID_40_);stroke:#FFFFFF;stroke-miterlimit:10;}
	.st21{fill:none;stroke:#000000;stroke-width:5;stroke-miterlimit:10;}
</style>
<circle class="st0" cx="518.2" cy="199.7" r="214.8"/>
<g>
	<g>
		<g>
			<g>
				<defs>
					<circle id="SVGID_1_" cx="512.6" cy="200.1" r="305.4"/>
				</defs>
				<clipPath id="SVGID_2_">
					<use xlink:href="#SVGID_1_"  style="overflow:visible;"/>
				</clipPath>
				<line class="st1" x1="830.6" y1="-136.2" x2="830.6" y2="200.1"/>
				<use xlink:href="#SVGID_1_"  style="overflow:visible;fill:none;stroke:#FFFFFF;stroke-miterlimit:10;"/>
			</g>
		</g>
		<g>
			<g>
				<defs>
					<circle id="SVGID_3_" cx="512.6" cy="200.1" r="305.4"/>
				</defs>
				<clipPath id="SVGID_4_">
					<use xlink:href="#SVGID_3_"  style="overflow:visible;"/>
				</clipPath>
				<polyline class="st2" points="512.6,200.1 512.6,-136.2 830.6,-136.2 				"/>
				<use xlink:href="#SVGID_3_"  style="overflow:visible;fill:none;stroke:#FFFFFF;stroke-miterlimit:10;"/>
			</g>
		</g>
	</g>
	<g>
		<g>
			<g>
				<g>
					<defs>
						<circle id="SVGID_5_" cx="511.4" cy="200.1" r="305.4"/>
					</defs>
					<clipPath id="SVGID_6_">
						<use xlink:href="#SVGID_5_"  style="overflow:visible;"/>
					</clipPath>
					<line class="st3" x1="187.7" y1="530.6" x2="193.5" y2="194.5"/>
					<use xlink:href="#SVGID_5_"  style="overflow:visible;fill:none;stroke:#FFFFFF;stroke-miterlimit:10;"/>
				</g>
			</g>
		</g>
		<g>
			<g>
				<g>
					<g>
						<defs>
							<circle id="SVGID_7_" cx="511.4" cy="201.3" r="273.8"/>
						</defs>
						<clipPath id="SVGID_8_">
							<use xlink:href="#SVGID_7_"  style="overflow:visible;"/>
						</clipPath>
						<line class="st4" x1="925.7" y1="177.4" x2="718.9" y2="396.9"/>
						<use xlink:href="#SVGID_7_"  style="overflow:visible;fill:none;stroke:#FFFFFF;stroke-miterlimit:10;"/>
					</g>
				</g>
				<g>
					<g>
						<defs>
							<circle id="SVGID_9_" cx="511.4" cy="201.3" r="273.8"/>
						</defs>
						<clipPath id="SVGID_10_">
							<use xlink:href="#SVGID_9_"  style="overflow:visible;"/>
						</clipPath>
						<polyline class="st5" points="511.4,201.3 718.2,-18.1 925.7,177.4 						"/>
						<use xlink:href="#SVGID_9_"  style="overflow:visible;fill:none;stroke:#FFFFFF;stroke-miterlimit:10;"/>
					</g>
				</g>
			</g>
		</g>
	</g>
</g>
<g>
	<g>
		<g>
			<g>
				<defs>
					<circle id="SVGID_11_" cx="512.6" cy="200.5" r="220.2"/>
				</defs>
				<clipPath id="SVGID_12_">
					<use xlink:href="#SVGID_11_"  style="overflow:visible;"/>
				</clipPath>
				<line class="st6" x1="769.5" y1="413.8" x2="527.4" y2="429.4"/>
				<use xlink:href="#SVGID_11_"  style="overflow:visible;fill:none;stroke:#FFFFFF;stroke-miterlimit:10;"/>
			</g>
		</g>
		<g>
			<g>
				<defs>
					<circle id="SVGID_13_" cx="512.6" cy="200.5" r="220.2"/>
				</defs>
				<clipPath id="SVGID_14_">
					<use xlink:href="#SVGID_13_"  style="overflow:visible;"/>
				</clipPath>
				<polyline class="st7" points="512.6,200.5 754.8,185 769.5,413.8 				"/>
				<use xlink:href="#SVGID_13_"  style="overflow:visible;fill:none;stroke:#FFFFFF;stroke-miterlimit:10;"/>
			</g>
		</g>
	</g>
	<g>
		<g>
			<g>
				<g>
					<defs>
						<path id="SVGID_15_" d="M289.7,207.1C284.9,85.5,380.9-16.8,504-21.6s226.7,90,231.6,211.6s-91.2,223.9-214.3,228.7
							C398.2,423.4,294.6,328.7,289.7,207.1z"/>
					</defs>
					<clipPath id="SVGID_16_">
						<use xlink:href="#SVGID_15_"  style="overflow:visible;"/>
					</clipPath>
					<line class="st8" x1="258.1" y1="-21.3" x2="503.6" y2="-30.6"/>
					<use xlink:href="#SVGID_15_"  style="overflow:visible;fill:none;stroke:#FFFFFF;stroke-miterlimit:10;"/>
				</g>
			</g>
		</g>
		<g>
			<g>
				<g>
					<g>
						<defs>
							<path id="SVGID_17_" d="M664.6,325.8c-71.1,83.5-197.4,94.2-282,23.9s-95.5-194.9-24.4-278.4s197.4-94.2,282-23.9
								S735.7,242.3,664.6,325.8z"/>
						</defs>
						<clipPath id="SVGID_18_">
							<use xlink:href="#SVGID_17_"  style="overflow:visible;"/>
						</clipPath>
						<line class="st9" x1="545.9" y1="496.1" x2="377.3" y2="356"/>
						<use xlink:href="#SVGID_17_"  style="overflow:visible;fill:none;stroke:#FFFFFF;stroke-miterlimit:10;"/>
					</g>
				</g>
				<g>
					<g>
						<defs>
							<path id="SVGID_19_" d="M664.6,325.8c-71.1,83.5-197.4,94.2-282,23.9s-95.5-194.9-24.4-278.4s197.4-94.2,282-23.9
								S735.7,242.3,664.6,325.8z"/>
						</defs>
						<clipPath id="SVGID_20_">
							<use xlink:href="#SVGID_19_"  style="overflow:visible;"/>
						</clipPath>
						<polyline class="st10" points="511.5,198.5 680.1,338.6 545.9,496.1 						"/>
						<use xlink:href="#SVGID_19_"  style="overflow:visible;fill:none;stroke:#FFFFFF;stroke-miterlimit:10;"/>
					</g>
				</g>
			</g>
		</g>
	</g>
</g>
<g>
	<g>
		<g>
			<g>
				<defs>
					<circle id="SVGID_21_" cx="512" cy="200.6" r="140.7"/>
				</defs>
				<clipPath id="SVGID_22_">
					<use xlink:href="#SVGID_21_"  style="overflow:visible;"/>
				</clipPath>
				<line class="st11" x1="384.7" y1="371.3" x2="366.6" y2="217.6"/>
				<use xlink:href="#SVGID_21_"  style="overflow:visible;fill:none;stroke:#FFFFFF;stroke-miterlimit:10;"/>
			</g>
		</g>
		<g>
			<g>
				<defs>
					<circle id="SVGID_23_" cx="512" cy="200.6" r="140.7"/>
				</defs>
				<clipPath id="SVGID_24_">
					<use xlink:href="#SVGID_23_"  style="overflow:visible;"/>
				</clipPath>
				<polyline class="st12" points="512,200.6 530.1,354.3 384.7,371.3 				"/>
				<use xlink:href="#SVGID_23_"  style="overflow:visible;fill:none;stroke:#FFFFFF;stroke-miterlimit:10;"/>
			</g>
		</g>
	</g>
	<g>
		<g>
			<g>
				<g>
					<defs>
						<path id="SVGID_25_" d="M500.4,58.6c77.4-7,145.9,50.7,152.9,129c7.1,78.3-49.8,147.6-127.1,154.7
							c-77.3,7.1-145.9-50.6-152.9-129C366.1,135.1,423.1,65.8,500.4,58.6z"/>
					</defs>
					<clipPath id="SVGID_26_">
						<use xlink:href="#SVGID_25_"  style="overflow:visible;"/>
					</clipPath>
					<line class="st13" x1="645" y1="30.9" x2="659.2" y2="187.1"/>
					<use xlink:href="#SVGID_25_"  style="overflow:visible;fill:none;stroke:#FFFFFF;stroke-miterlimit:10;"/>
				</g>
			</g>
		</g>
		<g>
			<g>
				<g>
					<g>
						<defs>
							<path id="SVGID_27_" d="M437.3,301.6c-55.7-42.6-66.7-122.7-24.7-179s121.1-67.4,176.7-24.8c55.5,42.6,66.6,122.7,24.6,179
								C572,333,492.8,344.2,437.3,301.6z"/>
						</defs>
						<clipPath id="SVGID_28_">
							<use xlink:href="#SVGID_27_"  style="overflow:visible;"/>
						</clipPath>
						<line class="st14" x1="324.8" y1="231.7" x2="408.4" y2="119.5"/>
						<use xlink:href="#SVGID_27_"  style="overflow:visible;fill:none;stroke:#FFFFFF;stroke-miterlimit:10;"/>
					</g>
				</g>
				<g>
					<g>
						<defs>
							<path id="SVGID_29_" d="M437.3,301.6c-55.7-42.6-66.7-122.7-24.7-179s121.1-67.4,176.7-24.8c55.5,42.6,66.6,122.7,24.6,179
								C572,333,492.8,344.2,437.3,301.6z"/>
						</defs>
						<clipPath id="SVGID_30_">
							<use xlink:href="#SVGID_29_"  style="overflow:visible;"/>
						</clipPath>
						<polyline class="st15" points="513.2,199.7 429.6,311.9 324.8,231.7 						"/>
						<use xlink:href="#SVGID_29_"  style="overflow:visible;fill:none;stroke:#FFFFFF;stroke-miterlimit:10;"/>
					</g>
				</g>
			</g>
		</g>
	</g>
</g>
<g>
	<g>
		<g>
			<g>
				<defs>
					<circle id="SVGID_31_" cx="513.2" cy="200.4" r="87.7"/>
				</defs>
				<clipPath id="SVGID_32_">
					<use xlink:href="#SVGID_31_"  style="overflow:visible;"/>
				</clipPath>
				<line class="st16" x1="403" y1="126.2" x2="498.2" y2="110.4"/>
				<use xlink:href="#SVGID_31_"  style="overflow:visible;fill:none;stroke:#FFFFFF;stroke-miterlimit:10;"/>
			</g>
		</g>
		<g>
			<g>
				<defs>
					<circle id="SVGID_33_" cx="513.2" cy="200.4" r="87.7"/>
				</defs>
				<clipPath id="SVGID_34_">
					<use xlink:href="#SVGID_33_"  style="overflow:visible;"/>
				</clipPath>
				<polyline class="st17" points="513.2,200.4 418,216.3 403,126.2 				"/>
				<use xlink:href="#SVGID_33_"  style="overflow:visible;fill:none;stroke:#FFFFFF;stroke-miterlimit:10;"/>
			</g>
		</g>
	</g>
	<g>
		<g>
			<g>
				<g>
					<defs>
						<path id="SVGID_35_" d="M601.2,188.9c6.8,48-27.1,92.4-75.7,99.1c-48.6,6.8-93.4-26.5-100.2-74.5s27.1-92.4,75.7-99.1
							C549.6,107.6,594.5,140.9,601.2,188.9z"/>
					</defs>
					<clipPath id="SVGID_36_">
						<use xlink:href="#SVGID_35_"  style="overflow:visible;"/>
					</clipPath>
					<line class="st18" x1="622.9" y1="278" x2="526.1" y2="291.5"/>
					<use xlink:href="#SVGID_35_"  style="overflow:visible;fill:none;stroke:#FFFFFF;stroke-miterlimit:10;"/>
				</g>
			</g>
		</g>
		<g>
			<g>
				<g>
					<g>
						<defs>
							<path id="SVGID_37_" d="M448.1,156.8c24.8-35.9,74.4-45.2,110.7-20.8s45.6,73.4,20.8,109.3s-74.4,45.3-110.7,20.8
								C432.6,241.6,423.2,192.8,448.1,156.8z"/>
						</defs>
						<clipPath id="SVGID_38_">
							<use xlink:href="#SVGID_37_"  style="overflow:visible;"/>
						</clipPath>
						<line class="st19" x1="488.2" y1="84.7" x2="560.6" y2="133.5"/>
						<use xlink:href="#SVGID_37_"  style="overflow:visible;fill:none;stroke:#FFFFFF;stroke-miterlimit:10;"/>
					</g>
				</g>
				<g>
					<g>
						<defs>
							<path id="SVGID_39_" d="M448.1,156.8c24.8-35.9,74.4-45.2,110.7-20.8s45.6,73.4,20.8,109.3s-74.4,45.3-110.7,20.8
								C432.6,241.6,423.2,192.8,448.1,156.8z"/>
						</defs>
						<clipPath id="SVGID_40_">
							<use xlink:href="#SVGID_39_"  style="overflow:visible;"/>
						</clipPath>
						<polyline class="st20" points="513.8,201.1 441.4,152.4 488.2,84.7 						"/>
						<use xlink:href="#SVGID_39_"  style="overflow:visible;fill:none;stroke:#FFFFFF;stroke-miterlimit:10;"/>
					</g>
				</g>
			</g>
		</g>
	</g>
</g>
<circle class="st21" cx="512.6" cy="200.1" r="305.4"/>
</svg>
